# xmcd
#
# Track frame offsets: 
#        150
#        13874
#        29799
#        41264
#        53117
#        64221
#        77987
#        90818
#        106410
#        118668
#        131220
#        142771
#        157275
#        168724
#
# Disc length: 2422 seconds
#
# Revision: 0
# Processed by: cddbd v1.5.2PL0 Copyright (c) Steve Scherf et al.
# Submitted via: ExactAudioCopy v0.99pb4
#
DISCID=c209740e
DTITLE=Varios - Pedro Infante - Las Consagradas
DYEAR=2007
DGENRE=Latin
TTITLE0=Amorcito Corazon - Jesus Camach, Manuel Esperon
TTITLE1=Cien Anos - Alberto Cervantes, Ruben Fuentes
TTITLE2=Muy Despacito - Jose Alfredo Jimenez
TTITLE3=Que Te Ha Dado Esa Mujer - Gilberto Parra
TTITLE4=Yo No Fui - Consuelo Velazques
TTITLE5=Peso Sobre Peso - Salvador Flores
TTITLE6=Echenme La Tierra Encima - Rodolfo de la Garza
TTITLE7=Sobre Las Olas - Joventino Rosas
TTITLE8=Nube Gris - Eduardo Marquez Talledo
TTITLE9=Luna De Octubre - Jose Antonio Michel
TTITLE10=Serenata Sin Luna - Jose Alfredo Jimenez
TTITLE11=La Tertulia - Salvador Flores
TTITLE12=El Gavilan Pollero - Ventura Romo
TTITLE13=Las Mañanitas - Dominio Publico
EXTD=
EXTT0=
EXTT1=
EXTT2=
EXTT3=
EXTT4=
EXTT5=
EXTT6=
EXTT7=
EXTT8=
EXTT9=
EXTT10=
EXTT11=
EXTT12=
EXTT13=
PLAYORDER=
